ffmpeg started on 2026-03-27 at 13:37:01
Report written to "D:\Convert\FFMetrics\reports\ssim_report-6.txt"
Log level: 32
Command line:
ffmpeg -hide_banner -nostdin -r 24000/1001 -i "F:\\Convert\\files\\Glass.Heart.s01e01.HD1080p.WEBRip.Rus.AniDub.com_HEVC(71).mkv" -r 24000/1001 -i "F:\\Convert\\files\\Glass.Heart.s01e01.HD1080p.WEBRip.Rus.AniDub.com.mp4" -lavfi "[0:v]settb=AVTB,setpts=PTS-STARTPTS,format=pix_fmts=yuv420p10le,fps=24000/1001,scale=1920:1080:flags=lanczos:param0=3:out_range=limited:out_chroma_loc=left,setsar=1/1,setdar=(1920/1080)*(1/1)[main];[1:v]settb=AVTB,setpts=PTS-STARTPTS,format=pix_fmts=yuv420p,fps=24000/1001,scale=1920:1080:flags=lanczos:param0=3:out_range=limited:out_chroma_loc=left,setsar=1/1,setdar=(1920/1080)*(1/1)[ref];[main][ref]ssim=eof_action=endall:stats_file='D\\:/Convert/FFMetrics/logs/ssim_logfile-6.txt'" -f null -
Input #0, matroska,webm, from 'F:\Convert\files\Glass.Heart.s01e01.HD1080p.WEBRip.Rus.AniDub.com_HEVC(71).mkv':
  Metadata:
    COMPATIBLE_BRANDS: mp42mp41
    MAJOR_BRAND     : mp42
    MINOR_VERSION   : 0
    ENCODER         : Lavf61.7.100
  Duration: 00:50:36.22, start: -0.021000, bitrate: 1890 kb/s
  Stream #0:0(eng): Video: hevc (Main 10), yuv420p10le(tv, progressive), 1920x1080 [SAR 1:1 DAR 16:9], 23.98 fps, 23.98 tbr, 1k tbn (default)
      Metadata:
        HANDLER_NAME    : Mainconcept Video Media Handler
        VENDOR_ID       : [0][0][0][0]
        ENCODER         : Lavc61.19.100 libx265
        BPS             : 1691840
        DURATION        : 00:50:36.199708333
        NUMBER_OF_FRAMES: 72796
        NUMBER_OF_BYTES : 642095491
        _STATISTICS_WRITING_APP: mkvpropedit v94.0 ('Initiate') 64-bit
        _STATISTICS_WRITING_DATE_UTC: 2026-03-27 09:30:51
        _STATISTICS_TAGS: BPS DURATION NUMBER_OF_FRAMES NUMBER_OF_BYTES
  Stream #0:1(eng): Audio: aac (LC), 48000 Hz, stereo, fltp (default)
      Metadata:
        HANDLER_NAME    : #Mainconcept MP4 Sound Media Handler
        VENDOR_ID       : [0][0][0][0]
        ENCODER         : Lavc61.19.100 aac
        BPS             : 194323
        DURATION        : 00:50:36.202000000
        NUMBER_OF_FRAMES: 142323
        NUMBER_OF_BYTES : 73750565
        _STATISTICS_WRITING_APP: mkvpropedit v94.0 ('Initiate') 64-bit
        _STATISTICS_WRITING_DATE_UTC: 2026-03-27 09:30:51
        _STATISTICS_TAGS: BPS DURATION NUMBER_OF_FRAMES NUMBER_OF_BYTES
Input #1, mov,mp4,m4a,3gp,3g2,mj2, from 'F:\Convert\files\Glass.Heart.s01e01.HD1080p.WEBRip.Rus.AniDub.com.mp4':
  Metadata:
    major_brand     : mp42
    minor_version   : 0
    compatible_brands: mp42mp41
    creation_time   : 2025-07-31T12:05:51.000000Z
  Duration: 00:50:36.20, start: 0.000000, bitrate: 7219 kb/s
  Stream #1:0[0x1](eng): Video: h264 (Main) (avc1 / 0x31637661), yuv420p(progressive), 1920x1080 [SAR 1:1 DAR 16:9], 6835 kb/s, 23.98 fps, 23.98 tbr, 24k tbn (default)
      Metadata:
        creation_time   : 2025-07-31T12:05:51.000000Z
        handler_name    : Mainconcept Video Media Handler
        vendor_id       : [0][0][0][0]
        encoder         : AVC Coding
  Stream #1:1[0x2](eng): Audio: aac (LC) (mp4a / 0x6134706D), 48000 Hz, stereo, fltp, 381 kb/s (default)
      Metadata:
        creation_time   : 2025-07-31T12:05:51.000000Z
        handler_name    : #Mainconcept MP4 Sound Media Handler
        vendor_id       : [0][0][0][0]
Stream mapping:
  Stream #0:0 (hevc) -> settb:default
  Stream #1:0 (h264) -> settb:default
  ssim:default -> Stream #0:0 (wrapped_avframe)
  Stream #0:1 -> #0:1 (aac (native) -> pcm_s16le (native))
Output #0, null, to 'pipe:':
  Metadata:
    COMPATIBLE_BRANDS: mp42mp41
    MAJOR_BRAND     : mp42
    MINOR_VERSION   : 0
    encoder         : Lavf61.7.100
  Stream #0:0: Video: wrapped_avframe, yuv420p10le(tv, progressive), 1920x1080 [SAR 1:1 DAR 16:9], q=2-31, 200 kb/s, 23.98 fps, 23.98 tbn
      Metadata:
        encoder         : Lavc61.19.100 wrapped_avframe
  Stream #0:1(eng): Audio: pcm_s16le, 48000 Hz, stereo, s16, 1536 kb/s (default)
      Metadata:
        HANDLER_NAME    : #Mainconcept MP4 Sound Media Handler
        VENDOR_ID       : [0][0][0][0]
        _STATISTICS_TAGS: BPS DURATION NUMBER_OF_FRAMES NUMBER_OF_BYTES
        BPS             : 194323
        DURATION        : 00:50:36.202000000
        NUMBER_OF_FRAMES: 142323
        NUMBER_OF_BYTES : 73750565
        _STATISTICS_WRITING_APP: mkvpropedit v94.0 ('Initiate') 64-bit
        _STATISTICS_WRITING_DATE_UTC: 2026-03-27 09:30:51
        encoder         : Lavc61.19.100 pcm_s16le
frame=  193 fps=0.0 q=-0.0 size=N/A time=00:00:08.04 bitrate=N/A speed=15.2x    frame=  378 fps=364 q=-0.0 size=N/A time=00:00:15.76 bitrate=N/A speed=15.2x    frame=  516 fps=333 q=-0.0 size=N/A time=00:00:21.52 bitrate=N/A speed=13.9x    frame=  668 fps=324 q=-0.0 size=N/A time=00:00:27.86 bitrate=N/A speed=13.5x    frame=  776 fps=300 q=-0.0 size=N/A time=00:00:32.36 bitrate=N/A speed=12.5x    frame=  904 fps=292 q=-0.0 size=N/A time=00:00:37.70 bitrate=N/A speed=12.2x    frame= 1056 fps=292 q=-0.0 size=N/A time=00:00:44.08 bitrate=N/A speed=12.2x    frame= 1208 fps=292 q=-0.0 size=N/A time=00:00:50.38 bitrate=N/A speed=12.2x    frame= 1369 fps=295 q=-0.0 size=N/A time=00:00:57.09 bitrate=N/A speed=12.3x    frame= 1534 fps=298 q=-0.0 size=N/A time=00:01:03.98 bitrate=N/A speed=12.4x    frame= 1671 fps=294 q=-0.0 size=N/A time=00:01:09.69 bitrate=N/A speed=12.3x    frame= 1857 fps=300 q=-0.0 size=N/A time=00:01:17.45 bitrate=N/A speed=12.5x    frame= 1997 fps=298 q=-0.0 size=N/A time=00:01:23.29 bitrate=N/A speed=12.4x    frame= 2143 fps=296 q=-0.0 size=N/A time=00:01:29.38 bitrate=N/A speed=12.4x    frame= 2335 fps=301 q=-0.0 size=N/A time=00:01:37.38 bitrate=N/A speed=12.5x    frame= 2529 fps=306 q=-0.0 size=N/A time=00:01:45.48 bitrate=N/A speed=12.7x    frame= 2694 fps=307 q=-0.0 size=N/A time=00:01:52.36 bitrate=N/A speed=12.8x    frame= 2878 fps=310 q=-0.0 size=N/A time=00:02:00.03 bitrate=N/A speed=12.9x    frame= 3069 fps=312 q=-0.0 size=N/A time=00:02:08.00 bitrate=N/A speed=  13x    frame= 3238 fps=313 q=-0.0 size=N/A time=00:02:15.05 bitrate=N/A speed=13.1x    frame= 3394 fps=313 q=-0.0 size=N/A time=00:02:21.55 bitrate=N/A speed=  13x    frame= 3542 fps=312 q=-0.0 size=N/A time=00:02:27.73 bitrate=N/A speed=  13x    frame= 3703 fps=312 q=-0.0 size=N/A time=00:02:34.44 bitrate=N/A speed=  13x    frame= 3896 fps=314 q=-0.0 size=N/A time=00:02:42.49 bitrate=N/A speed=13.1x    frame= 4041 fps=313 q=-0.0 size=N/A time=00:02:48.54 bitrate=N/A speed=13.1x    frame= 4216 fps=314 q=-0.0 size=N/A time=00:02:55.84 bitrate=N/A speed=13.1x    frame= 4381 fps=314 q=-0.0 size=N/A time=00:03:02.72 bitrate=N/A speed=13.1x    frame= 4539 fps=314 q=-0.0 size=N/A time=00:03:09.31 bitrate=N/A speed=13.1x    frame= 4720 fps=315 q=-0.0 size=N/A time=00:03:16.86 bitrate=N/A speed=13.1x    frame= 4912 fps=317 q=-0.0 size=N/A time=00:03:24.87 bitrate=N/A speed=13.2x    frame= 5096 fps=318 q=-0.0 size=N/A time=00:03:32.54 bitrate=N/A speed=13.3x    frame= 5281 fps=320 q=-0.0 size=N/A time=00:03:40.26 bitrate=N/A speed=13.3x    frame= 5446 fps=320 q=-0.0 size=N/A time=00:03:47.14 bitrate=N/A speed=13.3x    frame= 5624 fps=320 q=-0.0 size=N/A time=00:03:54.56 bitrate=N/A speed=13.4x    frame= 5800 fps=321 q=-0.0 size=N/A time=00:04:01.90 bitrate=N/A speed=13.4x    frame= 5989 fps=322 q=-0.0 size=N/A time=00:04:09.79 bitrate=N/A speed=13.4x    frame= 6176 fps=323 q=-0.0 size=N/A time=00:04:17.59 bitrate=N/A speed=13.5x    frame= 6362 fps=324 q=-0.0 size=N/A time=00:04:25.34 bitrate=N/A speed=13.5x    frame= 6551 fps=325 q=-0.0 size=N/A time=00:04:33.23 bitrate=N/A speed=13.6x    frame= 6736 fps=326 q=-0.0 size=N/A time=00:04:40.94 bitrate=N/A speed=13.6x    frame= 6909 fps=326 q=-0.0 size=N/A time=00:04:48.16 bitrate=N/A speed=13.6x    frame= 7080 fps=326 q=-0.0 size=N/A time=00:04:55.29 bitrate=N/A speed=13.6x    frame= 7263 fps=327 q=-0.0 size=N/A time=00:05:02.92 bitrate=N/A speed=13.6x    frame= 7436 fps=327 q=-0.0 size=N/A time=00:05:10.14 bitrate=N/A speed=13.6x    frame= 7598 fps=327 q=-0.0 size=N/A time=00:05:16.89 bitrate=N/A speed=13.6x    frame= 7776 fps=327 q=-0.0 size=N/A time=00:05:24.32 bitrate=N/A speed=13.7x    frame= 7984 fps=329 q=-0.0 size=N/A time=00:05:32.99 bitrate=N/A speed=13.7x    frame= 8195 fps=331 q=-0.0 size=N/A time=00:05:41.79 bitrate=N/A speed=13.8x    frame= 8376 fps=331 q=-0.0 size=N/A time=00:05:49.34 bitrate=N/A speed=13.8x    frame= 8593 fps=333 q=-0.0 size=N/A time=00:05:58.39 bitrate=N/A speed=13.9x    frame= 8798 fps=334 q=-0.0 size=N/A time=00:06:06.94 bitrate=N/A speed=13.9x    frame= 9000 fps=335 q=-0.0 size=N/A time=00:06:15.37 bitrate=N/A speed=  14x    frame= 9201 fps=336 q=-0.0 size=N/A time=00:06:23.75 bitrate=N/A speed=  14x    frame= 9377 fps=336 q=-0.0 size=N/A time=00:06:31.09 bitrate=N/A speed=  14x    frame= 9558 fps=337 q=-0.0 size=N/A time=00:06:38.64 bitrate=N/A speed=  14x    frame= 9755 fps=337 q=-0.0 size=N/A time=00:06:46.86 bitrate=N/A speed=14.1x    frame= 9939 fps=338 q=-0.0 size=N/A time=00:06:54.53 bitrate=N/A speed=14.1x    frame=10142 fps=339 q=-0.0 size=N/A time=00:07:03.00 bitrate=N/A speed=14.1x    frame=10340 fps=339 q=-0.0 size=N/A time=00:07:11.26 bitrate=N/A speed=14.2x    frame=10542 fps=340 q=-0.0 size=N/A time=00:07:19.68 bitrate=N/A speed=14.2x    frame=10763 fps=342 q=-0.0 size=N/A time=00:07:28.90 bitrate=N/A speed=14.3x    frame=10982 fps=343 q=-0.0 size=N/A time=00:07:38.04 bitrate=N/A speed=14.3x    frame=11195 fps=344 q=-0.0 size=N/A time=00:07:46.92 bitrate=N/A speed=14.4x    frame=11419 fps=346 q=-0.0 size=N/A time=00:07:56.26 bitrate=N/A speed=14.4x    frame=11642 fps=347 q=-0.0 size=N/A time=00:08:05.56 bitrate=N/A speed=14.5x    frame=11833 fps=347 q=-0.0 size=N/A time=00:08:13.53 bitrate=N/A speed=14.5x    frame=12048 fps=348 q=-0.0 size=N/A time=00:08:22.50 bitrate=N/A speed=14.5x    frame=12243 fps=349 q=-0.0 size=N/A time=00:08:30.63 bitrate=N/A speed=14.5x    frame=12437 fps=349 q=-0.0 size=N/A time=00:08:38.72 bitrate=N/A speed=14.6x    frame=12628 fps=350 q=-0.0 size=N/A time=00:08:46.69 bitrate=N/A speed=14.6x    frame=12840 fps=350 q=-0.0 size=N/A time=00:08:55.53 bitrate=N/A speed=14.6x    frame=13061 fps=351 q=-0.0 size=N/A time=00:09:04.75 bitrate=N/A speed=14.7x    frame=13271 fps=352 q=-0.0 size=N/A time=00:09:13.51 bitrate=N/A speed=14.7x    frame=13484 fps=353 q=-0.0 size=N/A time=00:09:22.39 bitrate=N/A speed=14.7x    frame=13702 fps=354 q=-0.0 size=N/A time=00:09:31.48 bitrate=N/A speed=14.8x    frame=13915 fps=355 q=-0.0 size=N/A time=00:09:40.37 bitrate=N/A speed=14.8x    frame=14135 fps=356 q=-0.0 size=N/A time=00:09:49.54 bitrate=N/A speed=14.8x    frame=14339 fps=356 q=-0.0 size=N/A time=00:09:58.05 bitrate=N/A speed=14.9x    frame=14563 fps=357 q=-0.0 size=N/A time=00:10:07.39 bitrate=N/A speed=14.9x    frame=14780 fps=358 q=-0.0 size=N/A time=00:10:16.44 bitrate=N/A speed=14.9x    frame=14978 fps=358 q=-0.0 size=N/A time=00:10:24.70 bitrate=N/A speed=14.9x    frame=15126 fps=357 q=-0.0 size=N/A time=00:10:30.88 bitrate=N/A speed=14.9x    frame=15258 fps=356 q=-0.0 size=N/A time=00:10:36.38 bitrate=N/A speed=14.9x    frame=15415 fps=356 q=-0.0 size=N/A time=00:10:42.93 bitrate=N/A speed=14.8x    frame=15599 fps=356 q=-0.0 size=N/A time=00:10:50.60 bitrate=N/A speed=14.8x    frame=15790 fps=356 q=-0.0 size=N/A time=00:10:58.57 bitrate=N/A speed=14.8x    frame=15933 fps=355 q=-0.0 size=N/A time=00:11:04.53 bitrate=N/A speed=14.8x    frame=16065 fps=354 q=-0.0 size=N/A time=00:11:10.04 bitrate=N/A speed=14.8x    frame=16198 fps=353 q=-0.0 size=N/A time=00:11:15.59 bitrate=N/A speed=14.7x    frame=16308 fps=351 q=-0.0 size=N/A time=00:11:20.17 bitrate=N/A speed=14.6x    frame=16444 fps=350 q=-0.0 size=N/A time=00:11:25.85 bitrate=N/A speed=14.6x    frame=16581 fps=349 q=-0.0 size=N/A time=00:11:31.56 bitrate=N/A speed=14.6x    frame=16704 fps=348 q=-0.0 size=N/A time=00:11:36.69 bitrate=N/A speed=14.5x    frame=16901 fps=348 q=-0.0 size=N/A time=00:11:44.91 bitrate=N/A speed=14.5x    frame=17122 fps=349 q=-0.0 size=N/A time=00:11:54.13 bitrate=N/A speed=14.6x    frame=17321 fps=350 q=-0.0 size=N/A time=00:12:02.43 bitrate=N/A speed=14.6x    frame=17532 fps=350 q=-0.0 size=N/A time=00:12:11.23 bitrate=N/A speed=14.6x    frame=17742 fps=351 q=-0.0 size=N/A time=00:12:19.98 bitrate=N/A speed=14.6x    frame=17968 fps=352 q=-0.0 size=N/A time=00:12:29.41 bitrate=N/A speed=14.7x    frame=18178 fps=352 q=-0.0 size=N/A time=00:12:38.17 bitrate=N/A speed=14.7x    frame=18398 fps=353 q=-0.0 size=N/A time=00:12:47.34 bitrate=N/A speed=14.7x    frame=18614 fps=354 q=-0.0 size=N/A time=00:12:56.35 bitrate=N/A speed=14.8x    frame=18819 fps=354 q=-0.0 size=N/A time=00:13:04.90 bitrate=N/A speed=14.8x    frame=19021 fps=354 q=-0.0 size=N/A time=00:13:13.33 bitrate=N/A speed=14.8x    frame=19236 fps=355 q=-0.0 size=N/A time=00:13:22.30 bitrate=N/A speed=14.8x    frame=19445 fps=356 q=-0.0 size=N/A time=00:13:31.01 bitrate=N/A speed=14.8x    frame=19652 fps=356 q=-0.0 size=N/A time=00:13:39.65 bitrate=N/A speed=14.8x    frame=19871 fps=356 q=-0.0 size=N/A time=00:13:48.78 bitrate=N/A speed=14.9x    frame=20068 fps=357 q=-0.0 size=N/A time=00:13:57.00 bitrate=N/A speed=14.9x    frame=20283 fps=357 q=-0.0 size=N/A time=00:14:05.97 bitrate=N/A speed=14.9x    frame=20496 fps=358 q=-0.0 size=N/A time=00:14:14.85 bitrate=N/A speed=14.9x    frame=20714 fps=358 q=-0.0 size=N/A time=00:14:23.94 bitrate=N/A speed=14.9x    frame=20930 fps=359 q=-0.0 size=N/A time=00:14:32.95 bitrate=N/A speed=  15x    frame=21140 fps=359 q=-0.0 size=N/A time=00:14:41.71 bitrate=N/A speed=  15x    frame=21357 fps=360 q=-0.0 size=N/A time=00:14:50.76 bitrate=N/A speed=  15x    frame=21575 fps=360 q=-0.0 size=N/A time=00:14:59.85 bitrate=N/A speed=  15x    frame=21783 fps=361 q=-0.0 size=N/A time=00:15:08.53 bitrate=N/A speed=  15x    frame=21999 fps=361 q=-0.0 size=N/A time=00:15:17.54 bitrate=N/A speed=15.1x    frame=22224 fps=362 q=-0.0 size=N/A time=00:15:26.92 bitrate=N/A speed=15.1x    frame=22428 fps=362 q=-0.0 size=N/A time=00:15:35.43 bitrate=N/A speed=15.1x    frame=22632 fps=362 q=-0.0 size=N/A time=00:15:43.94 bitrate=N/A speed=15.1x    frame=22849 fps=363 q=-0.0 size=N/A time=00:15:52.99 bitrate=N/A speed=15.1x    frame=23055 fps=363 q=-0.0 size=N/A time=00:16:01.58 bitrate=N/A speed=15.1x    frame=23246 fps=363 q=-0.0 size=N/A time=00:16:09.55 bitrate=N/A speed=15.2x    frame=23449 fps=363 q=-0.0 size=N/A time=00:16:18.01 bitrate=N/A speed=15.2x    frame=23625 fps=363 q=-0.0 size=N/A time=00:16:25.35 bitrate=N/A speed=15.2x    frame=23816 fps=363 q=-0.0 size=N/A time=00:16:33.32 bitrate=N/A speed=15.2x    frame=23999 fps=363 q=-0.0 size=N/A time=00:16:40.95 bitrate=N/A speed=15.2x    frame=24197 fps=363 q=-0.0 size=N/A time=00:16:49.21 bitrate=N/A speed=15.2x    frame=24399 fps=364 q=-0.0 size=N/A time=00:16:57.64 bitrate=N/A speed=15.2x    frame=24595 fps=364 q=-0.0 size=N/A time=00:17:05.81 bitrate=N/A speed=15.2x    frame=24807 fps=364 q=-0.0 size=N/A time=00:17:14.65 bitrate=N/A speed=15.2x    frame=24964 fps=364 q=-0.0 size=N/A time=00:17:21.20 bitrate=N/A speed=15.2x    frame=25101 fps=363 q=-0.0 size=N/A time=00:17:26.92 bitrate=N/A speed=15.1x    frame=25225 fps=362 q=-0.0 size=N/A time=00:17:32.09 bitrate=N/A speed=15.1x    frame=25345 fps=361 q=-0.0 size=N/A time=00:17:37.09 bitrate=N/A speed=15.1x    frame=25496 fps=361 q=-0.0 size=N/A time=00:17:43.39 bitrate=N/A speed=  15x    frame=25619 fps=360 q=-0.0 size=N/A time=00:17:48.52 bitrate=N/A speed=  15x    frame=25749 fps=359 q=-0.0 size=N/A time=00:17:53.94 bitrate=N/A speed=  15x    frame=25863 fps=358 q=-0.0 size=N/A time=00:17:58.70 bitrate=N/A speed=14.9x    frame=26038 fps=358 q=-0.0 size=N/A time=00:18:06.00 bitrate=N/A speed=14.9x    frame=26219 fps=358 q=-0.0 size=N/A time=00:18:13.55 bitrate=N/A speed=14.9x    frame=26416 fps=358 q=-0.0 size=N/A time=00:18:21.76 bitrate=N/A speed=14.9x    frame=26590 fps=358 q=-0.0 size=N/A time=00:18:29.02 bitrate=N/A speed=14.9x    frame=26776 fps=358 q=-0.0 size=N/A time=00:18:36.78 bitrate=N/A speed=14.9x    frame=26987 fps=358 q=-0.0 size=N/A time=00:18:45.58 bitrate=N/A speed=14.9x    frame=27157 fps=358 q=-0.0 size=N/A time=00:18:52.67 bitrate=N/A speed=14.9x    frame=27320 fps=358 q=-0.0 size=N/A time=00:18:59.47 bitrate=N/A speed=14.9x    frame=27480 fps=357 q=-0.0 size=N/A time=00:19:06.14 bitrate=N/A speed=14.9x    frame=27657 fps=357 q=-0.0 size=N/A time=00:19:13.52 bitrate=N/A speed=14.9x    frame=27828 fps=357 q=-0.0 size=N/A time=00:19:20.65 bitrate=N/A speed=14.9x    frame=28014 fps=357 q=-0.0 size=N/A time=00:19:28.41 bitrate=N/A speed=14.9x    frame=28211 fps=357 q=-0.0 size=N/A time=00:19:36.63 bitrate=N/A speed=14.9x    frame=28403 fps=357 q=-0.0 size=N/A time=00:19:44.64 bitrate=N/A speed=14.9x    frame=28609 fps=358 q=-0.0 size=N/A time=00:19:53.23 bitrate=N/A speed=14.9x    frame=28818 fps=358 q=-0.0 size=N/A time=00:20:01.95 bitrate=N/A speed=14.9x    frame=29006 fps=358 q=-0.0 size=N/A time=00:20:09.79 bitrate=N/A speed=14.9x    frame=29188 fps=358 q=-0.0 size=N/A time=00:20:17.38 bitrate=N/A speed=14.9x    frame=29350 fps=358 q=-0.0 size=N/A time=00:20:24.13 bitrate=N/A speed=14.9x    frame=29519 fps=358 q=-0.0 size=N/A time=00:20:31.18 bitrate=N/A speed=14.9x    frame=29696 fps=357 q=-0.0 size=N/A time=00:20:38.57 bitrate=N/A speed=14.9x    frame=29884 fps=357 q=-0.0 size=N/A time=00:20:46.41 bitrate=N/A speed=14.9x    frame=30044 fps=357 q=-0.0 size=N/A time=00:20:53.08 bitrate=N/A speed=14.9x    frame=30196 fps=357 q=-0.0 size=N/A time=00:20:59.42 bitrate=N/A speed=14.9x    frame=30370 fps=357 q=-0.0 size=N/A time=00:21:06.68 bitrate=N/A speed=14.9x    frame=30544 fps=357 q=-0.0 size=N/A time=00:21:13.93 bitrate=N/A speed=14.9x    frame=30740 fps=357 q=-0.0 size=N/A time=00:21:22.11 bitrate=N/A speed=14.9x    frame=30955 fps=357 q=-0.0 size=N/A time=00:21:31.08 bitrate=N/A speed=14.9x    frame=31171 fps=357 q=-0.0 size=N/A time=00:21:40.09 bitrate=N/A speed=14.9x    frame=31387 fps=358 q=-0.0 size=N/A time=00:21:49.09 bitrate=N/A speed=14.9x    frame=31588 fps=358 q=-0.0 size=N/A time=00:21:57.48 bitrate=N/A speed=14.9x    frame=31804 fps=358 q=-0.0 size=N/A time=00:22:06.49 bitrate=N/A speed=14.9x    frame=32014 fps=359 q=-0.0 size=N/A time=00:22:15.25 bitrate=N/A speed=  15x    frame=32225 fps=359 q=-0.0 size=N/A time=00:22:24.05 bitrate=N/A speed=  15x    frame=32446 fps=359 q=-0.0 size=N/A time=00:22:33.26 bitrate=N/A speed=  15x    frame=32652 fps=359 q=-0.0 size=N/A time=00:22:41.86 bitrate=N/A speed=  15x    frame=32861 fps=360 q=-0.0 size=N/A time=00:22:50.57 bitrate=N/A speed=  15x    frame=33080 fps=360 q=-0.0 size=N/A time=00:22:59.71 bitrate=N/A speed=  15x    frame=33249 fps=360 q=-0.0 size=N/A time=00:23:06.76 bitrate=N/A speed=  15x    frame=33418 fps=360 q=-0.0 size=N/A time=00:23:13.80 bitrate=N/A speed=  15x    frame=33588 fps=360 q=-0.0 size=N/A time=00:23:20.89 bitrate=N/A speed=  15x    frame=33786 fps=360 q=-0.0 size=N/A time=00:23:29.15 bitrate=N/A speed=  15x    frame=33979 fps=360 q=-0.0 size=N/A time=00:23:37.20 bitrate=N/A speed=  15x    frame=34178 fps=360 q=-0.0 size=N/A time=00:23:45.50 bitrate=N/A speed=  15x    frame=34387 fps=360 q=-0.0 size=N/A time=00:23:54.22 bitrate=N/A speed=  15x    frame=34599 fps=360 q=-0.0 size=N/A time=00:24:03.06 bitrate=N/A speed=  15x    frame=34791 fps=360 q=-0.0 size=N/A time=00:24:11.07 bitrate=N/A speed=  15x    frame=34992 fps=361 q=-0.0 size=N/A time=00:24:19.45 bitrate=N/A speed=  15x    frame=35209 fps=361 q=-0.0 size=N/A time=00:24:28.50 bitrate=N/A speed=15.1x    frame=35422 fps=361 q=-0.0 size=N/A time=00:24:37.39 bitrate=N/A speed=15.1x    frame=35601 fps=361 q=-0.0 size=N/A time=00:24:44.85 bitrate=N/A speed=15.1x    frame=35803 fps=361 q=-0.0 size=N/A time=00:24:53.28 bitrate=N/A speed=15.1x    frame=36004 fps=362 q=-0.0 size=N/A time=00:25:01.66 bitrate=N/A speed=15.1x    frame=36221 fps=362 q=-0.0 size=N/A time=00:25:10.71 bitrate=N/A speed=15.1x    frame=36431 fps=362 q=-0.0 size=N/A time=00:25:19.47 bitrate=N/A speed=15.1x    frame=36600 fps=362 q=-0.0 size=N/A time=00:25:26.52 bitrate=N/A speed=15.1x    frame=36791 fps=362 q=-0.0 size=N/A time=00:25:34.49 bitrate=N/A speed=15.1x    frame=36969 fps=362 q=-0.0 size=N/A time=00:25:41.91 bitrate=N/A speed=15.1x    frame=37148 fps=362 q=-0.0 size=N/A time=00:25:49.38 bitrate=N/A speed=15.1x    frame=37331 fps=362 q=-0.0 size=N/A time=00:25:57.01 bitrate=N/A speed=15.1x    frame=37516 fps=362 q=-0.0 size=N/A time=00:26:04.72 bitrate=N/A speed=15.1x    frame=37688 fps=361 q=-0.0 size=N/A time=00:26:11.90 bitrate=N/A speed=15.1x    frame=37872 fps=361 q=-0.0 size=N/A time=00:26:19.57 bitrate=N/A speed=15.1x    frame=38052 fps=361 q=-0.0 size=N/A time=00:26:27.08 bitrate=N/A speed=15.1x    frame=38229 fps=361 q=-0.0 size=N/A time=00:26:34.46 bitrate=N/A speed=15.1x    frame=38409 fps=361 q=-0.0 size=N/A time=00:26:41.97 bitrate=N/A speed=15.1x    frame=38594 fps=361 q=-0.0 size=N/A time=00:26:49.69 bitrate=N/A speed=15.1x    frame=38796 fps=361 q=-0.0 size=N/A time=00:26:58.11 bitrate=N/A speed=15.1x    frame=38979 fps=361 q=-0.0 size=N/A time=00:27:05.74 bitrate=N/A speed=15.1x    frame=39178 fps=362 q=-0.0 size=N/A time=00:27:14.04 bitrate=N/A speed=15.1x    frame=39373 fps=362 q=-0.0 size=N/A time=00:27:22.18 bitrate=N/A speed=15.1x    frame=39551 fps=361 q=-0.0 size=N/A time=00:27:29.60 bitrate=N/A speed=15.1x    frame=39736 fps=361 q=-0.0 size=N/A time=00:27:37.32 bitrate=N/A speed=15.1x    frame=39922 fps=361 q=-0.0 size=N/A time=00:27:45.08 bitrate=N/A speed=15.1x    frame=40092 fps=361 q=-0.0 size=N/A time=00:27:52.17 bitrate=N/A speed=15.1x    frame=40272 fps=361 q=-0.0 size=N/A time=00:27:59.67 bitrate=N/A speed=15.1x    frame=40432 fps=361 q=-0.0 size=N/A time=00:28:06.35 bitrate=N/A speed=15.1x    frame=40591 fps=361 q=-0.0 size=N/A time=00:28:12.98 bitrate=N/A speed=  15x    frame=40714 fps=360 q=-0.0 size=N/A time=00:28:18.11 bitrate=N/A speed=  15x    frame=40914 fps=360 q=-0.0 size=N/A time=00:28:26.45 bitrate=N/A speed=  15x    frame=41051 fps=360 q=-0.0 size=N/A time=00:28:32.16 bitrate=N/A speed=  15x    frame=41215 fps=360 q=-0.0 size=N/A time=00:28:39.00 bitrate=N/A speed=  15x    frame=41417 fps=360 q=-0.0 size=N/A time=00:28:47.43 bitrate=N/A speed=  15x    frame=41568 fps=360 q=-0.0 size=N/A time=00:28:53.73 bitrate=N/A speed=  15x    frame=41756 fps=360 q=-0.0 size=N/A time=00:29:01.57 bitrate=N/A speed=  15x    frame=41934 fps=360 q=-0.0 size=N/A time=00:29:08.99 bitrate=N/A speed=  15x    frame=42109 fps=359 q=-0.0 size=N/A time=00:29:16.29 bitrate=N/A speed=  15x    frame=42295 fps=359 q=-0.0 size=N/A time=00:29:24.05 bitrate=N/A speed=  15x    frame=42495 fps=360 q=-0.0 size=N/A time=00:29:32.39 bitrate=N/A speed=  15x    frame=42700 fps=360 q=-0.0 size=N/A time=00:29:40.94 bitrate=N/A speed=  15x    frame=42879 fps=360 q=-0.0 size=N/A time=00:29:48.41 bitrate=N/A speed=  15x    frame=43032 fps=359 q=-0.0 size=N/A time=00:29:54.79 bitrate=N/A speed=  15x    frame=43190 fps=359 q=-0.0 size=N/A time=00:30:01.38 bitrate=N/A speed=  15x    frame=43346 fps=359 q=-0.0 size=N/A time=00:30:07.88 bitrate=N/A speed=  15x    frame=43533 fps=359 q=-0.0 size=N/A time=00:30:15.68 bitrate=N/A speed=  15x    frame=43698 fps=359 q=-0.0 size=N/A time=00:30:22.57 bitrate=N/A speed=  15x    frame=43860 fps=359 q=-0.0 size=N/A time=00:30:29.32 bitrate=N/A speed=  15x    frame=44001 fps=358 q=-0.0 size=N/A time=00:30:35.20 bitrate=N/A speed=14.9x    frame=44153 fps=358 q=-0.0 size=N/A time=00:30:41.54 bitrate=N/A speed=14.9x    frame=44319 fps=358 q=-0.0 size=N/A time=00:30:48.47 bitrate=N/A speed=14.9x    frame=44454 fps=357 q=-0.0 size=N/A time=00:30:54.10 bitrate=N/A speed=14.9x    frame=44630 fps=357 q=-0.0 size=N/A time=00:31:01.44 bitrate=N/A speed=14.9x    frame=44829 fps=358 q=-0.0 size=N/A time=00:31:09.74 bitrate=N/A speed=14.9x    frame=45045 fps=358 q=-0.0 size=N/A time=00:31:18.75 bitrate=N/A speed=14.9x    frame=45260 fps=358 q=-0.0 size=N/A time=00:31:27.71 bitrate=N/A speed=14.9x    frame=45470 fps=358 q=-0.0 size=N/A time=00:31:36.47 bitrate=N/A speed=14.9x    frame=45687 fps=358 q=-0.0 size=N/A time=00:31:45.52 bitrate=N/A speed=14.9x    frame=45909 fps=359 q=-0.0 size=N/A time=00:31:54.78 bitrate=N/A speed=  15x    frame=46128 fps=359 q=-0.0 size=N/A time=00:32:03.92 bitrate=N/A speed=  15x    frame=46350 fps=359 q=-0.0 size=N/A time=00:32:13.18 bitrate=N/A speed=  15x    frame=46572 fps=360 q=-0.0 size=N/A time=00:32:22.44 bitrate=N/A speed=  15x    frame=46775 fps=360 q=-0.0 size=N/A time=00:32:30.90 bitrate=N/A speed=  15x    frame=46982 fps=360 q=-0.0 size=N/A time=00:32:39.54 bitrate=N/A speed=  15x    frame=47201 fps=360 q=-0.0 size=N/A time=00:32:48.67 bitrate=N/A speed=  15x    frame=47422 fps=360 q=-0.0 size=N/A time=00:32:57.89 bitrate=N/A speed=  15x    frame=47635 fps=361 q=-0.0 size=N/A time=00:33:06.77 bitrate=N/A speed=  15x    frame=47842 fps=361 q=-0.0 size=N/A time=00:33:15.41 bitrate=N/A speed=  15x    frame=48058 fps=361 q=-0.0 size=N/A time=00:33:24.41 bitrate=N/A speed=15.1x    frame=48255 fps=361 q=-0.0 size=N/A time=00:33:32.63 bitrate=N/A speed=15.1x    frame=48461 fps=361 q=-0.0 size=N/A time=00:33:41.22 bitrate=N/A speed=15.1x    frame=48649 fps=361 q=-0.0 size=N/A time=00:33:49.06 bitrate=N/A speed=15.1x    frame=48855 fps=361 q=-0.0 size=N/A time=00:33:57.66 bitrate=N/A speed=15.1x    frame=49043 fps=361 q=-0.0 size=N/A time=00:34:05.50 bitrate=N/A speed=15.1x    frame=49239 fps=361 q=-0.0 size=N/A time=00:34:13.67 bitrate=N/A speed=15.1x    frame=49455 fps=362 q=-0.0 size=N/A time=00:34:22.68 bitrate=N/A speed=15.1x    frame=49660 fps=362 q=-0.0 size=N/A time=00:34:31.23 bitrate=N/A speed=15.1x    frame=49880 fps=362 q=-0.0 size=N/A time=00:34:40.41 bitrate=N/A speed=15.1x    frame=50082 fps=362 q=-0.0 size=N/A time=00:34:48.83 bitrate=N/A speed=15.1x    frame=50257 fps=362 q=-0.0 size=N/A time=00:34:56.13 bitrate=N/A speed=15.1x    frame=50464 fps=362 q=-0.0 size=N/A time=00:35:04.76 bitrate=N/A speed=15.1x    frame=50670 fps=362 q=-0.0 size=N/A time=00:35:13.36 bitrate=N/A speed=15.1x    frame=50859 fps=362 q=-0.0 size=N/A time=00:35:21.24 bitrate=N/A speed=15.1x    frame=51054 fps=362 q=-0.0 size=N/A time=00:35:29.37 bitrate=N/A speed=15.1x    frame=51267 fps=363 q=-0.0 size=N/A time=00:35:38.26 bitrate=N/A speed=15.1x    frame=51447 fps=363 q=-0.0 size=N/A time=00:35:45.76 bitrate=N/A speed=15.1x    frame=51641 fps=363 q=-0.0 size=N/A time=00:35:53.86 bitrate=N/A speed=15.1x    frame=51851 fps=363 q=-0.0 size=N/A time=00:36:02.61 bitrate=N/A speed=15.1x    frame=52045 fps=363 q=-0.0 size=N/A time=00:36:10.71 bitrate=N/A speed=15.1x    frame=52260 fps=363 q=-0.0 size=N/A time=00:36:19.67 bitrate=N/A speed=15.1x    frame=52455 fps=363 q=-0.0 size=N/A time=00:36:27.81 bitrate=N/A speed=15.1x    frame=52651 fps=363 q=-0.0 size=N/A time=00:36:35.98 bitrate=N/A speed=15.1x    frame=52860 fps=363 q=-0.0 size=N/A time=00:36:44.70 bitrate=N/A speed=15.1x    frame=53053 fps=363 q=-0.0 size=N/A time=00:36:52.75 bitrate=N/A speed=15.2x    frame=53261 fps=363 q=-0.0 size=N/A time=00:37:01.42 bitrate=N/A speed=15.2x    frame=53471 fps=364 q=-0.0 size=N/A time=00:37:10.18 bitrate=N/A speed=15.2x    frame=53673 fps=364 q=-0.0 size=N/A time=00:37:18.61 bitrate=N/A speed=15.2x    frame=53868 fps=364 q=-0.0 size=N/A time=00:37:26.74 bitrate=N/A speed=15.2x    frame=54064 fps=364 q=-0.0 size=N/A time=00:37:34.91 bitrate=N/A speed=15.2x    frame=54251 fps=364 q=-0.0 size=N/A time=00:37:42.71 bitrate=N/A speed=15.2x    frame=54416 fps=364 q=-0.0 size=N/A time=00:37:49.60 bitrate=N/A speed=15.2x    frame=54626 fps=364 q=-0.0 size=N/A time=00:37:58.35 bitrate=N/A speed=15.2x    frame=54808 fps=364 q=-0.0 size=N/A time=00:38:05.95 bitrate=N/A speed=15.2x    frame=54988 fps=364 q=-0.0 size=N/A time=00:38:13.45 bitrate=N/A speed=15.2x    frame=55195 fps=364 q=-0.0 size=N/A time=00:38:22.09 bitrate=N/A speed=15.2x    frame=55420 fps=364 q=-0.0 size=N/A time=00:38:31.47 bitrate=N/A speed=15.2x    frame=55626 fps=364 q=-0.0 size=N/A time=00:38:40.06 bitrate=N/A speed=15.2x    frame=55828 fps=364 q=-0.0 size=N/A time=00:38:48.49 bitrate=N/A speed=15.2x    frame=56040 fps=364 q=-0.0 size=N/A time=00:38:57.33 bitrate=N/A speed=15.2x    frame=56253 fps=365 q=-0.0 size=N/A time=00:39:06.21 bitrate=N/A speed=15.2x    frame=56462 fps=365 q=-0.0 size=N/A time=00:39:14.93 bitrate=N/A speed=15.2x    frame=56642 fps=365 q=-0.0 size=N/A time=00:39:22.44 bitrate=N/A speed=15.2x    frame=56847 fps=365 q=-0.0 size=N/A time=00:39:30.99 bitrate=N/A speed=15.2x    frame=57056 fps=365 q=-0.0 size=N/A time=00:39:39.71 bitrate=N/A speed=15.2x    frame=57250 fps=365 q=-0.0 size=N/A time=00:39:47.80 bitrate=N/A speed=15.2x    frame=57443 fps=365 q=-0.0 size=N/A time=00:39:55.85 bitrate=N/A speed=15.2x    frame=57633 fps=365 q=-0.0 size=N/A time=00:40:03.77 bitrate=N/A speed=15.2x    frame=57840 fps=365 q=-0.0 size=N/A time=00:40:12.41 bitrate=N/A speed=15.2x    frame=58036 fps=365 q=-0.0 size=N/A time=00:40:20.58 bitrate=N/A speed=15.2x    frame=58254 fps=365 q=-0.0 size=N/A time=00:40:29.67 bitrate=N/A speed=15.2x    frame=58455 fps=365 q=-0.0 size=N/A time=00:40:38.06 bitrate=N/A speed=15.2x    frame=58689 fps=366 q=-0.0 size=N/A time=00:40:47.82 bitrate=N/A speed=15.3x    frame=58893 fps=366 q=-0.0 size=N/A time=00:40:56.32 bitrate=N/A speed=15.3x    frame=59119 fps=366 q=-0.0 size=N/A time=00:41:05.75 bitrate=N/A speed=15.3x    frame=59347 fps=366 q=-0.0 size=N/A time=00:41:15.30 bitrate=N/A speed=15.3x    frame=59552 fps=366 q=-0.0 size=N/A time=00:41:23.81 bitrate=N/A speed=15.3x    frame=59754 fps=366 q=-0.0 size=N/A time=00:41:32.23 bitrate=N/A speed=15.3x    frame=59927 fps=366 q=-0.0 size=N/A time=00:41:39.45 bitrate=N/A speed=15.3x    frame=60128 fps=366 q=-0.0 size=N/A time=00:41:47.83 bitrate=N/A speed=15.3x    frame=60332 fps=367 q=-0.0 size=N/A time=00:41:56.34 bitrate=N/A speed=15.3x    frame=60565 fps=367 q=-0.0 size=N/A time=00:42:06.06 bitrate=N/A speed=15.3x    frame=60751 fps=367 q=-0.0 size=N/A time=00:42:13.82 bitrate=N/A speed=15.3x    frame=60916 fps=367 q=-0.0 size=N/A time=00:42:20.70 bitrate=N/A speed=15.3x    frame=61100 fps=367 q=-0.0 size=N/A time=00:42:28.37 bitrate=N/A speed=15.3x    frame=61302 fps=367 q=-0.0 size=N/A time=00:42:36.80 bitrate=N/A speed=15.3x    frame=61505 fps=367 q=-0.0 size=N/A time=00:42:45.27 bitrate=N/A speed=15.3x    frame=61656 fps=367 q=-0.0 size=N/A time=00:42:51.56 bitrate=N/A speed=15.3x    frame=61871 fps=367 q=-0.0 size=N/A time=00:43:00.53 bitrate=N/A speed=15.3x    frame=62084 fps=367 q=-0.0 size=N/A time=00:43:09.42 bitrate=N/A speed=15.3x    frame=62282 fps=367 q=-0.0 size=N/A time=00:43:17.67 bitrate=N/A speed=15.3x    frame=62483 fps=367 q=-0.0 size=N/A time=00:43:26.06 bitrate=N/A speed=15.3x    frame=62630 fps=367 q=-0.0 size=N/A time=00:43:32.19 bitrate=N/A speed=15.3x    frame=62820 fps=367 q=-0.0 size=N/A time=00:43:40.11 bitrate=N/A speed=15.3x    frame=63024 fps=367 q=-0.0 size=N/A time=00:43:48.62 bitrate=N/A speed=15.3x    frame=63243 fps=367 q=-0.0 size=N/A time=00:43:57.76 bitrate=N/A speed=15.3x    frame=63446 fps=367 q=-0.0 size=N/A time=00:44:06.22 bitrate=N/A speed=15.3x    frame=63639 fps=367 q=-0.0 size=N/A time=00:44:14.27 bitrate=N/A speed=15.3x    frame=63851 fps=367 q=-0.0 size=N/A time=00:44:23.11 bitrate=N/A speed=15.3x    frame=64015 fps=367 q=-0.0 size=N/A time=00:44:29.95 bitrate=N/A speed=15.3x    frame=64196 fps=367 q=-0.0 size=N/A time=00:44:37.50 bitrate=N/A speed=15.3x    frame=64383 fps=367 q=-0.0 size=N/A time=00:44:45.30 bitrate=N/A speed=15.3x    frame=64579 fps=367 q=-0.0 size=N/A time=00:44:53.48 bitrate=N/A speed=15.3x    frame=64746 fps=367 q=-0.0 size=N/A time=00:45:00.44 bitrate=N/A speed=15.3x    frame=64942 fps=367 q=-0.0 size=N/A time=00:45:08.62 bitrate=N/A speed=15.3x    frame=65117 fps=367 q=-0.0 size=N/A time=00:45:15.92 bitrate=N/A speed=15.3x    frame=65337 fps=367 q=-0.0 size=N/A time=00:45:25.09 bitrate=N/A speed=15.3x    frame=65542 fps=367 q=-0.0 size=N/A time=00:45:33.64 bitrate=N/A speed=15.3x    frame=65752 fps=367 q=-0.0 size=N/A time=00:45:42.40 bitrate=N/A speed=15.3x    frame=65950 fps=367 q=-0.0 size=N/A time=00:45:50.66 bitrate=N/A speed=15.3x    frame=66145 fps=367 q=-0.0 size=N/A time=00:45:58.79 bitrate=N/A speed=15.3x    frame=66310 fps=367 q=-0.0 size=N/A time=00:46:05.67 bitrate=N/A speed=15.3x    frame=66453 fps=367 q=-0.0 size=N/A time=00:46:11.64 bitrate=N/A speed=15.3x    frame=66645 fps=367 q=-0.0 size=N/A time=00:46:19.65 bitrate=N/A speed=15.3x    frame=66852 fps=367 q=-0.0 size=N/A time=00:46:28.28 bitrate=N/A speed=15.3x    frame=67093 fps=367 q=-0.0 size=N/A time=00:46:38.33 bitrate=N/A speed=15.3x    frame=67337 fps=368 q=-0.0 size=N/A time=00:46:48.51 bitrate=N/A speed=15.3x    frame=67581 fps=368 q=-0.0 size=N/A time=00:46:58.69 bitrate=N/A speed=15.3x    frame=67816 fps=368 q=-0.0 size=N/A time=00:47:08.49 bitrate=N/A speed=15.4x    frame=68055 fps=368 q=-0.0 size=N/A time=00:47:18.46 bitrate=N/A speed=15.4x    frame=68299 fps=369 q=-0.0 size=N/A time=00:47:28.63 bitrate=N/A speed=15.4x    frame=68534 fps=369 q=-0.0 size=N/A time=00:47:38.43 bitrate=N/A speed=15.4x    frame=68782 fps=369 q=-0.0 size=N/A time=00:47:48.78 bitrate=N/A speed=15.4x    frame=69021 fps=370 q=-0.0 size=N/A time=00:47:58.75 bitrate=N/A speed=15.4x    frame=69263 fps=370 q=-0.0 size=N/A time=00:48:08.84 bitrate=N/A speed=15.4x    frame=69507 fps=370 q=-0.0 size=N/A time=00:48:19.02 bitrate=N/A speed=15.4x    frame=69750 fps=370 q=-0.0 size=N/A time=00:48:29.15 bitrate=N/A speed=15.4x    frame=69989 fps=371 q=-0.0 size=N/A time=00:48:39.12 bitrate=N/A speed=15.5x    frame=70228 fps=371 q=-0.0 size=N/A time=00:48:49.09 bitrate=N/A speed=15.5x    frame=70475 fps=371 q=-0.0 size=N/A time=00:48:59.39 bitrate=N/A speed=15.5x    frame=70711 fps=371 q=-0.0 size=N/A time=00:49:09.23 bitrate=N/A speed=15.5x    frame=70945 fps=372 q=-0.0 size=N/A time=00:49:18.99 bitrate=N/A speed=15.5x    frame=71183 fps=372 q=-0.0 size=N/A time=00:49:28.92 bitrate=N/A speed=15.5x    frame=71409 fps=372 q=-0.0 size=N/A time=00:49:38.35 bitrate=N/A speed=15.5x    frame=71648 fps=372 q=-0.0 size=N/A time=00:49:48.31 bitrate=N/A speed=15.5x    frame=71883 fps=372 q=-0.0 size=N/A time=00:49:58.12 bitrate=N/A speed=15.5x    frame=72125 fps=373 q=-0.0 size=N/A time=00:50:08.21 bitrate=N/A speed=15.5x    frame=72366 fps=373 q=-0.0 size=N/A time=00:50:18.26 bitrate=N/A speed=15.6x    frame=72612 fps=373 q=-0.0 size=N/A time=00:50:28.52 bitrate=N/A speed=15.6x    [Parsed_ssim_14 @ 0000026a1e6bc400] SSIM Y:0.992910 (21.493579) U:0.994344 (22.475049) V:0.992768 (21.407402) All:0.993125 (21.627529)
[out#0/null @ 0000026a1b26ef40] video:31280KiB audio:569292KiB subtitle:0KiB other streams:0KiB global headers:0KiB muxing overhead: unknown
frame=72796 fps=373 q=-0.0 Lsize=N/A time=00:50:36.19 bitrate=N/A speed=15.6x    
